<?xml version="1.0" standalone="no"?>
<!DOCTYPE svg PUBLIC "-//W3C//DTD SVG 20010904//EN"
 "http://www.w3.org/TR/2001/REC-SVG-20010904/DTD/svg10.dtd">
<svg version="1.0" xmlns="http://www.w3.org/2000/svg"
 width="700.000000pt" height="700.000000pt" viewBox="0 0 700.000000 700.000000"
 preserveAspectRatio="xMidYMid meet">
<metadata>
Created by potrace 1.14, written by Peter Selinger 2001-2017
</metadata>
<g transform="translate(0.000000,700.000000) scale(0.100000,-0.100000)"
fill="#000000" stroke="none">
<path d="M3480 5367 c-14 -7 -106 -63 -205 -124 -462 -284 -641 -396 -658
-412 -22 -21 -26 -77 -31 -409 -1 -127 -5 -234 -7 -236 -2 -2 -128 -67 -279
-144 -419 -214 -440 -225 -466 -249 -23 -21 -24 -27 -25 -175 0 -84 -2 -418
-4 -743 -2 -324 -4 -596 -4 -602 -1 -10 -57 -13 -247 -13 -288 0 -303 -4 -304
-77 0 -22 8 -38 26 -52 26 -20 29 -20 2229 -18 2151 2 2203 2 2224 21 31 28
28 79 -5 105 -25 20 -39 21 -270 21 l-243 0 1 223 c0 614 -3 724 -18 746 -8
11 -20 21 -26 21 -5 0 -22 8 -36 19 -28 19 -266 143 -539 280 l-163 82 0 272
c-1 477 -10 898 -19 915 -10 19 -881 562 -900 562 -3 0 -17 -6 -31 -13z m310
-322 c19 -12 139 -87 265 -165 l230 -143 -2 -130 c-2 -71 -4 -131 -6 -133 -2
-3 -674 410 -685 421 -6 5 -9 225 -4 251 4 21 9 19 85 -28 45 -28 98 -60 117
-73z m77 -491 c148 -91 298 -187 336 -212 75 -51 69 -34 69 -192 0 -44 -1 -89
-1 -100 -1 -17 -20 -8 -133 62 -73 44 -145 88 -160 97 -15 9 -109 67 -210 130
l-183 114 -1 133 c-1 74 3 134 7 134 5 0 129 -75 276 -166z m-663 77 c9 -8 16
-25 16 -40 0 -59 -30 -71 -177 -68 -134 2 -163 14 -163 67 0 43 24 54 124 60
107 6 178 -1 200 -19z m-5 -295 c31 -28 33 -55 6 -82 -23 -23 -28 -24 -160
-21 -122 2 -138 4 -151 21 -19 27 -18 65 3 88 15 17 30 19 150 15 108 -3 137
-7 152 -21z m571 -166 c74 -46 158 -97 185 -115 98 -63 305 -185 315 -185 6 0
10 -54 10 -145 l0 -145 -132 82 c-73 45 -159 98 -191 117 -32 20 -66 41 -75
46 -10 6 -72 43 -137 84 -66 41 -129 79 -140 86 -19 12 -20 22 -19 141 2 159
0 149 27 132 12 -9 83 -52 157 -98z m-564 -135 c18 -19 23 -31 19 -48 -14 -47
-35 -51 -224 -49 -94 1 -121 15 -116 60 5 52 34 62 172 62 119 0 125 -1 149
-25z m-618 -895 l1 -880 -319 0 -320 0 -1 28 c-3 72 1 1380 4 1397 3 14 38 37
118 78 63 33 200 103 304 158 105 54 195 99 201 99 7 0 11 -260 12 -880z
m1252 542 c85 -52 178 -109 205 -127 28 -18 89 -56 137 -86 l88 -54 0 -90 c1
-49 3 -109 4 -132 2 -24 0 -43 -3 -43 -6 0 -321 189 -514 309 -32 20 -73 45
-92 56 -82 50 -76 38 -79 170 -1 66 -1 126 2 133 5 14 17 8 252 -136z m-629
59 c24 -29 24 -43 0 -72 -18 -23 -27 -24 -138 -26 -137 -3 -159 1 -179 33 -13
19 -14 27 -2 51 17 35 38 40 182 39 111 -1 119 -3 137 -25z m-7 -286 c24 -25
28 -52 10 -80 -9 -14 -26 -25 -38 -26 -30 -1 -196 -1 -227 0 -60 3 -86 66 -42
101 23 18 40 20 154 20 100 0 131 -3 143 -15z m1866 -752 l0 -443 -320 0 -320
0 0 60 c-1 33 -1 296 -1 585 0 289 0 534 1 545 0 18 43 -1 320 -142 l320 -163
0 -442z m-1185 509 c138 -85 273 -169 300 -187 28 -18 60 -37 72 -44 21 -11
22 -17 21 -146 -1 -114 -4 -135 -16 -130 -12 4 -391 237 -488 300 -18 11 -62
38 -99 60 -37 22 -72 45 -79 51 -10 10 -14 155 -7 257 1 23 -14 31 296 -161z
m-673 -62 c24 -30 23 -46 -7 -75 -23 -24 -30 -25 -148 -25 -134 0 -163 9 -171
57 -11 54 35 70 198 68 101 -2 111 -4 128 -25z m680 -388 c150 -93 299 -185
330 -205 l57 -37 -4 -112 c-2 -62 -4 -121 -4 -131 -1 -23 15 -32 -388 216
l-293 179 -1 37 c-2 48 -2 180 0 210 1 16 6 21 15 18 8 -3 137 -82 288 -175z
m-676 94 c19 -27 18 -49 -4 -77 -18 -21 -27 -22 -138 -24 -65 -1 -131 2 -145
7 -33 11 -53 52 -39 78 19 36 42 40 178 38 119 -3 135 -5 148 -22z m-6 -291
c38 -34 19 -87 -36 -101 -43 -11 -250 0 -266 14 -21 17 -27 56 -12 76 18 26
56 32 181 31 94 -2 116 -5 133 -20z m535 -155 c66 -40 145 -90 175 -109 l55
-36 -98 -3 c-53 -1 -141 -1 -195 0 l-97 3 0 122 c-1 121 0 122 20 110 11 -8
74 -46 140 -87z"/>
<path d="M2339 3753 c-12 -13 -14 -134 -14 -691 l0 -675 22 -14 c17 -11 26
-12 42 -3 21 11 21 14 21 695 0 666 -1 685 -19 695 -27 14 -36 13 -52 -7z"/>
<path d="M2092 3513 c-5 -10 -9 -262 -9 -571 0 -547 1 -553 21 -568 26 -18 31
-18 50 2 14 14 16 79 16 573 0 420 -3 560 -12 569 -18 18 -56 15 -66 -5z"/>
<path d="M4598 3233 c-14 -16 -16 -72 -14 -435 0 -229 3 -418 6 -421 17 -15
50 -16 64 -2 14 15 16 63 16 426 0 264 -4 417 -10 430 -13 24 -42 25 -62 2z"/>
<path d="M4842 3028 c-9 -9 -12 -95 -12 -324 0 -271 2 -315 16 -328 20 -21 37
-20 56 2 13 14 16 62 16 322 -1 168 -5 313 -10 323 -10 20 -48 23 -66 5z"/>
<path d="M2240 1953 c-29 -20 -31 -53 -7 -77 l22 -21 1256 0 c1364 0 1289 -3
1289 55 0 58 75 55 -1288 55 -973 0 -1259 -3 -1272 -12z"/>
<path d="M1320 1358 l0 -278 45 0 45 0 0 125 0 125 129 0 130 0 -1 -87 c0 -49
1 -105 1 -125 l1 -38 44 0 45 0 -2 278 -2 277 -42 0 c-24 1 -43 -4 -44 -10 0
-5 0 -56 1 -112 l1 -103 -131 0 -130 0 0 113 0 113 -45 0 -45 0 0 -278z"/>
<path d="M2171 1618 c-4 -13 -43 -117 -86 -233 -43 -115 -86 -231 -96 -257
l-19 -48 49 0 48 0 17 48 c10 26 23 61 30 77 l13 30 94 -2 c52 0 99 -2 106 -2
6 -1 22 -34 35 -73 l25 -73 46 -3 c28 -2 47 1 47 7 0 9 -75 215 -176 484 l-26
67 -49 0 c-42 0 -51 -3 -58 -22z m99 -183 c18 -55 35 -105 37 -111 3 -8 -22
-12 -77 -13 -63 -1 -81 1 -77 11 2 7 20 61 38 120 19 59 37 104 40 100 3 -4
21 -52 39 -107z"/>
<path d="M2640 1616 c-10 -28 -1 -56 19 -57 9 -1 44 -1 79 -1 l62 1 0 -240 0
-240 46 3 46 3 2 235 1 235 67 1 c85 2 99 7 94 36 -3 13 -5 28 -5 33 -1 6 -75
10 -202 10 -192 0 -202 -1 -209 -19z"/>
<path d="M3341 1443 c-40 -109 -83 -225 -96 -258 -42 -110 -43 -105 10 -105
47 0 46 -1 71 65 10 26 9 26 18 58 5 15 13 28 20 28 6 1 54 2 108 3 l96 2 27
-78 27 -78 49 0 49 0 -31 86 c-18 47 -64 172 -103 277 l-71 192 -51 3 -50 3
-73 -198z m199 -124 c0 -3 -34 -6 -75 -6 -45 0 -75 4 -75 10 0 5 17 60 37 120
l37 110 38 -114 c21 -62 38 -116 38 -120z"/>
<path d="M3936 1631 c-2 -3 -3 -129 -3 -278 l1 -273 46 0 46 0 -1 125 -1 125
128 0 128 0 0 -125 0 -125 45 0 45 0 0 278 0 279 -45 -1 -45 -1 0 -112 0 -113
-128 0 -128 0 1 110 c1 61 -2 110 -5 111 -22 5 -82 4 -84 0z"/>
<path d="M4656 1631 c-2 -3 -3 -98 -2 -211 l1 -206 29 -48 c21 -36 40 -53 75
-69 90 -42 240 -20 288 41 41 51 45 83 47 292 l1 205 -45 0 -45 0 -1 -202 c-2
-191 -3 -203 -24 -233 -38 -53 -117 -67 -177 -30 -54 32 -57 47 -57 262 -1
109 -3 198 -6 199 -21 5 -82 4 -84 0z"/>
<path d="M5379 1621 c-1 -9 -2 -134 -3 -279 l-1 -263 131 2 c176 1 240 30 260
114 19 78 -1 132 -62 163 l-36 19 30 12 c50 21 74 103 48 166 -25 58 -80 77
-237 80 -113 2 -129 0 -130 -14z m233 -71 c46 -13 62 -51 42 -98 -15 -36 -32
-42 -122 -45 l-62 -2 0 77 0 78 53 0 c28 0 68 -5 89 -10z m28 -235 c51 -26 49
-116 -3 -144 -30 -16 -147 -20 -161 -5 -7 6 -11 24 -10 40 1 16 3 50 3 77 l1
47 70 0 c43 0 82 -6 100 -15z"/>
</g>
</svg>
