<svg width="1215" height="1215" viewBox="0 0 1215 900" fill="none" xmlns="http://www.w3.org/2000/svg">
<path d="M394 726H824" stroke="#28E48E" stroke-width="19" stroke-linecap="round"/>
<path d="M369 640V452.103M411 411V640" stroke="#28E48E" stroke-width="15" stroke-linecap="round"/>
<path d="M803 501V640M846 536.847V640" stroke="#28E48E" stroke-width="15" stroke-linecap="round"/>
<path fill-rule="evenodd" clip-rule="evenodd" d="M603.695 125.621C602.084 126.539 572.098 145.064 537.059 166.79C502.021 188.514 468.842 209.005 463.33 212.323C457.816 215.641 452.544 219.675 451.614 221.286C450.458 223.287 449.688 241.093 449.189 277.426L448.456 330.636L430.15 340.164C420.081 345.406 391.044 360.166 365.625 372.965C340.204 385.765 318.126 397.65 316.564 399.377C313.8 402.43 313.711 406.203 313.332 534.215L312.943 665.91H271.114H229.286L225.005 670.192C218.749 676.451 219.992 685.746 227.545 689.189C230.131 690.367 335.164 690.815 608.962 690.815C937.718 690.815 987.348 690.537 990.953 688.672C997.966 685.044 999.016 677.306 993.384 670.753L989.851 666.643L947.252 666.214L904.652 665.783V583.667C904.652 511.692 904.368 501.071 902.354 497.662C900.611 494.714 884.234 485.737 834.62 460.533L769.184 427.294L768.452 325.754C768.049 269.909 767.159 223.07 766.472 221.671C765.785 220.272 760.513 216.242 754.756 212.716C748.999 209.19 733.743 199.749 720.856 191.737C662.638 155.54 616.61 127.124 613.677 125.564C609.722 123.463 607.461 123.476 603.695 125.621ZM673.744 191.536C701.266 208.611 739.301 232.411 743.555 235C743.555 247.794 743.305 282.083 742.999 282.083C742.693 282.083 719.461 267.817 691.375 250.379C663.287 232.943 636.353 216.242 631.52 213.268L622.733 207.858L622.33 184.173C622.109 171.147 622.328 160.489 622.815 160.489C623.303 160.489 646.221 174.461 673.744 191.536ZM650.559 254.235C662.641 261.753 679.446 272.186 687.904 277.419C696.362 282.651 712.338 292.599 723.407 299.524L741.668 312V358.003C740.629 357.742 713.28 341.106 680.89 321.033L622.001 284.535V260.433V236.331L625.296 238.448C627.109 239.613 638.477 246.717 650.559 254.235ZM555.244 252.949C558.563 255.561 559.11 256.994 558.737 262.105C558.056 271.428 553.088 273.293 529.004 273.27C508.429 273.248 504.159 272.131 500.631 265.845C497.85 260.888 499.348 255.586 504.414 252.457C507.785 250.373 512.25 249.925 529.905 249.893C549.508 249.856 551.64 250.114 555.244 252.949ZM555.528 304.559C560.699 309.008 561.007 316.491 556.18 320.401C553.254 322.772 550.011 323.103 529.737 323.103C504.363 323.103 501.586 322.262 499.628 313.983C498.871 310.784 500.5 305.5 502 304C503.5 302.5 503.5 302 507.5 301.128C511.5 300.256 529.542 301.128 529.542 301.128C550.499 301.128 551.729 301.291 555.528 304.559ZM646.436 328.774C659.175 336.727 684.755 352.619 703.281 364.089C721.807 375.558 743 387.5 743 387.5C743 400.373 743.195 435.907 742.754 435.907C742.314 435.907 718.423 421.297 689.666 403.44C660.907 385.582 633.931 368.936 629.719 366.449L622.058 361.925L622.03 338.119C622.014 325.026 622.288 314.313 622.638 314.313C622.988 314.313 633.698 320.82 646.436 328.774ZM554.584 354.575C561.82 358.318 561.886 369.03 554.696 372.879C553.132 373.717 541.838 374.377 529.101 374.377C508.257 374.377 506.054 374.127 503.375 371.447C499.014 367.085 499.47 359.244 504.305 355.439C507.804 352.687 510.136 352.403 529.275 352.403C545.066 352.403 551.444 352.95 554.584 354.575ZM449.189 512.086V665.91H393.537H337.886V540.74C337.886 442.822 338.281 415.312 339.7 414.385C341.247 413.374 447.791 358.686 448.822 358.374C449.023 358.312 449.189 427.483 449.189 512.086ZM681.176 427.372C712.666 446.849 739.584 463.762 740.993 464.956C740.993 483.107 742.217 512.086 742.217 512.086C742.217 512.086 714.296 495.654 681.806 475.569L622.733 439.051L622.33 415.504C622.109 402.553 622.377 391.957 622.925 391.957C623.473 391.957 649.686 407.893 681.176 427.372ZM556.896 407.274C558.873 409.251 560.491 412.577 560.491 414.665C560.491 416.752 558.873 420.078 556.896 422.055C553.391 425.563 552.743 425.652 530.733 425.652C510.118 425.652 507.831 425.39 504.305 422.615C501.507 420.413 500.446 418.229 500.446 414.665C500.446 411.1 501.507 408.916 504.305 406.714C507.831 403.939 510.118 403.677 530.733 403.677C552.743 403.677 553.391 403.767 556.896 407.274ZM556.896 458.548C558.873 460.526 560.491 463.852 560.491 465.939C560.491 468.027 558.873 471.352 556.896 473.33C553.391 476.837 552.743 476.927 530.733 476.927C510.118 476.927 507.831 476.664 504.305 473.89C501.507 471.688 500.446 469.504 500.446 465.939C500.446 462.375 501.507 460.191 504.305 457.989C507.831 455.214 510.118 454.952 530.733 454.952C552.743 454.952 553.391 455.041 556.896 458.548ZM879.743 588.632L879.755 665.91H824.104H768.452V560.336V454.763L824.092 483.058L879.73 511.354L879.743 588.632ZM646.898 483.107C659.383 490.778 686.073 507.305 706.21 519.835L742.823 542.615C742.457 554.5 742.457 589.731 742.457 589.731C741.813 589.731 736.688 586.833 731.07 583.292C725.453 579.751 698.63 563.106 671.465 546.301L622.076 515.749L622.038 491.856C622.017 478.715 622.494 468.233 623.099 468.562C623.704 468.891 634.413 475.437 646.898 483.107ZM556.632 509.263C561.678 513.232 561.789 519.712 556.896 524.605C553.387 528.116 552.759 528.201 530.469 528.201C508.179 528.201 507.551 528.116 504.042 524.605C499.149 519.712 499.26 513.232 504.305 509.263C507.826 506.493 510.121 506.226 530.469 506.226C550.817 506.226 553.112 506.493 556.632 509.263ZM683.51 582.93L742.823 619.886L741.75 665.91C741.75 665.91 713.514 649.583 681.302 629.627L622.733 593.343L622.33 569.562C622.109 556.483 622.439 545.825 623.063 545.878C623.687 545.931 650.888 562.605 683.51 582.93ZM557.103 560.686C561.893 565.189 561.676 572.47 556.632 576.439C553.107 579.214 550.82 579.476 530.205 579.476C508.195 579.476 507.546 579.387 504.042 575.879C502.065 573.902 500.446 570.576 500.446 568.488C500.446 566.401 502.065 563.075 504.042 561.098C507.554 557.585 508.166 557.501 530.674 557.501C552.312 557.501 553.919 557.694 557.103 560.686ZM557.286 611.763C561.933 616.093 561.618 623.792 556.632 627.714C553.137 630.465 550.801 630.75 531.805 630.75C509.321 630.75 504.696 629.69 502.072 623.928C499.666 618.642 500.054 616.36 504.042 612.372C507.555 608.856 508.156 608.776 530.859 608.776C552.205 608.776 554.34 609.017 557.286 611.763ZM650.559 639.568C662.641 647.063 676.286 655.411 680.88 658.119C685.474 660.827 689.632 663.686 690.12 664.476C690.688 665.396 678.641 665.91 656.503 665.91H622.001V643.767V621.624L625.296 623.782C627.109 624.968 638.477 632.072 650.559 639.568Z" fill="#3D3D3D"/>
<path d="M229 678H986" stroke="#3D3D3D" stroke-width="25" stroke-linecap="round"/>
<path d="M305.168 870H289.414V826.494H244.985V870H229.165V773.628H244.985V813.047H289.414V773.628H305.168V870ZM414.7 870L405.274 843.237H368.426L359 870H342.322L378.182 773.232H395.716L431.509 870H414.7ZM401.187 829.658L392.025 803.291C391.673 802.148 391.168 800.544 390.508 798.479C389.849 796.37 389.19 794.238 388.531 792.085C387.872 789.888 387.322 788.042 386.883 786.548C386.443 788.35 385.894 790.371 385.235 792.612C384.62 794.81 384.005 796.875 383.389 798.809C382.818 800.742 382.379 802.236 382.071 803.291L372.842 829.658H401.187ZM501.952 870H486.066V787.075H457.853V773.628H530.099V787.075H501.952V870ZM628.886 870L619.46 843.237H582.612L573.186 870H556.508L592.368 773.232H609.902L645.695 870H628.886ZM615.373 829.658L606.21 803.291C605.859 802.148 605.354 800.544 604.694 798.479C604.035 796.37 603.376 794.238 602.717 792.085C602.058 789.888 601.508 788.042 601.069 786.548C600.629 788.35 600.08 790.371 599.421 792.612C598.806 794.81 598.19 796.875 597.575 798.809C597.004 800.742 596.564 802.236 596.257 803.291L587.028 829.658H615.373ZM758.721 870H742.967V826.494H698.538V870H682.717V773.628H698.538V813.047H742.967V773.628H758.721V870ZM884.205 773.628V835.986C884.205 842.71 882.777 848.73 879.92 854.048C877.108 859.365 872.845 863.584 867.132 866.704C861.419 869.78 854.234 871.318 845.577 871.318C833.228 871.318 823.824 868.088 817.364 861.628C810.948 855.125 807.74 846.489 807.74 835.723V773.628H823.56V834.338C823.56 842.38 825.45 848.313 829.229 852.136C833.009 855.959 838.656 857.871 846.17 857.871C851.356 857.871 855.575 856.97 858.827 855.168C862.122 853.323 864.539 850.642 866.078 847.126C867.66 843.567 868.451 839.282 868.451 834.272V773.628H884.205ZM933.158 773.628H961.833C974.269 773.628 983.651 775.43 989.98 779.033C996.308 782.637 999.472 788.855 999.472 797.688C999.472 801.379 998.813 804.719 997.494 807.708C996.22 810.652 994.352 813.091 991.891 815.024C989.43 816.914 986.398 818.188 982.795 818.848V819.507C986.53 820.166 989.848 821.331 992.748 823C995.693 824.67 998 827.065 999.67 830.186C1001.38 833.306 1002.24 837.349 1002.24 842.314C1002.24 848.203 1000.83 853.213 998.022 857.344C995.253 861.475 991.276 864.617 986.09 866.77C980.949 868.923 974.84 870 967.765 870H933.158V773.628ZM948.979 813.376H964.14C971.303 813.376 976.269 812.212 979.037 809.883C981.806 807.554 983.19 804.148 983.19 799.666C983.19 795.095 981.542 791.799 978.246 789.778C974.994 787.756 969.809 786.746 962.69 786.746H948.979V813.376ZM948.979 826.165V856.75H965.656C973.039 856.75 978.224 855.322 981.213 852.466C984.201 849.609 985.695 845.742 985.695 840.864C985.695 837.876 985.014 835.283 983.651 833.086C982.333 830.889 980.158 829.197 977.126 828.01C974.093 826.78 970.006 826.165 964.865 826.165H948.979Z" fill="#3D3D3D"/>
</svg>
